<mxfile host="Electron" modified="2024-02-15T10:43:48.275Z" agent="Mozilla/5.0 (Windows NT 10.0; Win64; x64) AppleWebKit/537.36 (KHTML, like Gecko) draw.io/22.1.21 Chrome/120.0.6099.109 Electron/28.1.0 Safari/537.36" etag="M51A-v3HUcZ0upOCE7Re" version="22.1.21" type="device">
  <diagram name="Page-1" id="qAxd_SzaQkCmQVhb05f6">
    <mxGraphModel dx="2163" dy="786" grid="1" gridSize="10" guides="1" tooltips="1" connect="1" arrows="1" fold="1" page="1" pageScale="1" pageWidth="850" pageHeight="1100" math="0" shadow="0">
      <root>
        <mxCell id="0" />
        <mxCell id="1" parent="0" />
        <mxCell id="16j_9UyL-g9f7a7CFyK_-1" value="phong" style="whiteSpace=wrap;html=1;align=center;fillColor=#ffe6cc;strokeColor=#d79b00;" parent="1" vertex="1">
          <mxGeometry x="380" y="300" width="100" height="40" as="geometry" />
        </mxCell>
        <mxCell id="16j_9UyL-g9f7a7CFyK_-2" value="chu_phong" style="whiteSpace=wrap;html=1;align=center;fillColor=#ffe6cc;strokeColor=#d79b00;" parent="1" vertex="1">
          <mxGeometry x="880" y="410" width="100" height="40" as="geometry" />
        </mxCell>
        <mxCell id="16j_9UyL-g9f7a7CFyK_-3" value="dich_vu" style="whiteSpace=wrap;html=1;align=center;fillColor=#ffe6cc;strokeColor=#d79b00;" parent="1" vertex="1">
          <mxGeometry x="880" y="300" width="100" height="40" as="geometry" />
        </mxCell>
        <mxCell id="16j_9UyL-g9f7a7CFyK_-4" value="thiet_bi" style="whiteSpace=wrap;html=1;align=center;fillColor=#ffe6cc;strokeColor=#d79b00;" parent="1" vertex="1">
          <mxGeometry x="880" y="160" width="100" height="40" as="geometry" />
        </mxCell>
        <mxCell id="16j_9UyL-g9f7a7CFyK_-5" value="phuong_xa" style="whiteSpace=wrap;html=1;align=center;fillColor=#ffe6cc;strokeColor=#d79b00;" parent="1" vertex="1">
          <mxGeometry x="30" y="300" width="100" height="40" as="geometry" />
        </mxCell>
        <mxCell id="16j_9UyL-g9f7a7CFyK_-6" value="quan_huyen" style="whiteSpace=wrap;html=1;align=center;fillColor=#ffe6cc;strokeColor=#d79b00;" parent="1" vertex="1">
          <mxGeometry x="30" y="100" width="100" height="40" as="geometry" />
        </mxCell>
        <mxCell id="16j_9UyL-g9f7a7CFyK_-7" value="tinh" style="whiteSpace=wrap;html=1;align=center;fillColor=#ffe6cc;strokeColor=#d79b00;" parent="1" vertex="1">
          <mxGeometry x="380" y="100" width="100" height="40" as="geometry" />
        </mxCell>
        <mxCell id="Vf8y5KTE2COu4aGGxKiX-9" style="edgeStyle=orthogonalEdgeStyle;rounded=0;orthogonalLoop=1;jettySize=auto;html=1;exitX=0.5;exitY=1;exitDx=0;exitDy=0;endArrow=none;endFill=0;" edge="1" parent="1" source="16j_9UyL-g9f7a7CFyK_-8" target="Vf8y5KTE2COu4aGGxKiX-7">
          <mxGeometry relative="1" as="geometry" />
        </mxCell>
        <mxCell id="16j_9UyL-g9f7a7CFyK_-8" value="nguoi_tim_phong" style="whiteSpace=wrap;html=1;align=center;fillColor=#ffe6cc;strokeColor=#d79b00;" parent="1" vertex="1">
          <mxGeometry x="30" y="520" width="100" height="40" as="geometry" />
        </mxCell>
        <mxCell id="16j_9UyL-g9f7a7CFyK_-14" style="edgeStyle=orthogonalEdgeStyle;rounded=0;orthogonalLoop=1;jettySize=auto;html=1;exitX=0;exitY=0.5;exitDx=0;exitDy=0;entryX=0.75;entryY=1;entryDx=0;entryDy=0;endArrow=ERoneToMany;endFill=0;" parent="1" source="16j_9UyL-g9f7a7CFyK_-12" target="16j_9UyL-g9f7a7CFyK_-1" edge="1">
          <mxGeometry relative="1" as="geometry" />
        </mxCell>
        <mxCell id="16j_9UyL-g9f7a7CFyK_-15" style="edgeStyle=orthogonalEdgeStyle;rounded=0;orthogonalLoop=1;jettySize=auto;html=1;exitX=1;exitY=0.5;exitDx=0;exitDy=0;entryX=0;entryY=0.5;entryDx=0;entryDy=0;endArrow=ERmandOne;endFill=0;" parent="1" source="16j_9UyL-g9f7a7CFyK_-12" target="16j_9UyL-g9f7a7CFyK_-2" edge="1">
          <mxGeometry relative="1" as="geometry" />
        </mxCell>
        <mxCell id="16j_9UyL-g9f7a7CFyK_-12" value="thuộc&lt;br&gt;" style="shape=rhombus;perimeter=rhombusPerimeter;whiteSpace=wrap;html=1;align=center;fillColor=#d5e8d4;strokeColor=#82b366;" parent="1" vertex="1">
          <mxGeometry x="630" y="400" width="120" height="60" as="geometry" />
        </mxCell>
        <mxCell id="16j_9UyL-g9f7a7CFyK_-17" style="edgeStyle=orthogonalEdgeStyle;rounded=0;orthogonalLoop=1;jettySize=auto;html=1;exitX=0;exitY=0.5;exitDx=0;exitDy=0;entryX=1;entryY=0.5;entryDx=0;entryDy=0;endArrow=ERoneToMany;endFill=0;" parent="1" source="16j_9UyL-g9f7a7CFyK_-16" target="16j_9UyL-g9f7a7CFyK_-1" edge="1">
          <mxGeometry relative="1" as="geometry" />
        </mxCell>
        <mxCell id="16j_9UyL-g9f7a7CFyK_-18" style="edgeStyle=orthogonalEdgeStyle;rounded=0;orthogonalLoop=1;jettySize=auto;html=1;exitX=1;exitY=0.5;exitDx=0;exitDy=0;endArrow=ERoneToMany;endFill=0;" parent="1" source="16j_9UyL-g9f7a7CFyK_-16" target="16j_9UyL-g9f7a7CFyK_-3" edge="1">
          <mxGeometry relative="1" as="geometry" />
        </mxCell>
        <mxCell id="16j_9UyL-g9f7a7CFyK_-16" value="ct_dich_vu" style="shape=associativeEntity;whiteSpace=wrap;html=1;align=center;fillColor=#dae8fc;strokeColor=#6c8ebf;" parent="1" vertex="1">
          <mxGeometry x="620" y="290" width="140" height="60" as="geometry" />
        </mxCell>
        <mxCell id="16j_9UyL-g9f7a7CFyK_-24" style="edgeStyle=orthogonalEdgeStyle;rounded=0;orthogonalLoop=1;jettySize=auto;html=1;exitX=1;exitY=0.5;exitDx=0;exitDy=0;entryX=0;entryY=0.5;entryDx=0;entryDy=0;endArrow=ERoneToMany;endFill=0;" parent="1" source="16j_9UyL-g9f7a7CFyK_-21" target="16j_9UyL-g9f7a7CFyK_-4" edge="1">
          <mxGeometry relative="1" as="geometry" />
        </mxCell>
        <mxCell id="16j_9UyL-g9f7a7CFyK_-25" style="edgeStyle=orthogonalEdgeStyle;rounded=0;orthogonalLoop=1;jettySize=auto;html=1;exitX=0;exitY=0.5;exitDx=0;exitDy=0;entryX=0.75;entryY=0;entryDx=0;entryDy=0;endArrow=ERoneToMany;endFill=0;" parent="1" source="16j_9UyL-g9f7a7CFyK_-21" target="16j_9UyL-g9f7a7CFyK_-1" edge="1">
          <mxGeometry relative="1" as="geometry" />
        </mxCell>
        <mxCell id="16j_9UyL-g9f7a7CFyK_-21" value="ct_thiet_bi" style="shape=associativeEntity;whiteSpace=wrap;html=1;align=center;fillColor=#dae8fc;strokeColor=#6c8ebf;" parent="1" vertex="1">
          <mxGeometry x="620" y="150" width="140" height="60" as="geometry" />
        </mxCell>
        <mxCell id="16j_9UyL-g9f7a7CFyK_-27" style="edgeStyle=orthogonalEdgeStyle;rounded=0;orthogonalLoop=1;jettySize=auto;html=1;exitX=0;exitY=0.5;exitDx=0;exitDy=0;entryX=1;entryY=0.5;entryDx=0;entryDy=0;endArrow=ERmandOne;endFill=0;" parent="1" source="16j_9UyL-g9f7a7CFyK_-26" target="16j_9UyL-g9f7a7CFyK_-5" edge="1">
          <mxGeometry relative="1" as="geometry" />
        </mxCell>
        <mxCell id="16j_9UyL-g9f7a7CFyK_-28" style="edgeStyle=orthogonalEdgeStyle;rounded=0;orthogonalLoop=1;jettySize=auto;html=1;exitX=1;exitY=0.5;exitDx=0;exitDy=0;entryX=0;entryY=0.5;entryDx=0;entryDy=0;endArrow=ERoneToMany;endFill=0;" parent="1" source="16j_9UyL-g9f7a7CFyK_-26" target="16j_9UyL-g9f7a7CFyK_-1" edge="1">
          <mxGeometry relative="1" as="geometry" />
        </mxCell>
        <mxCell id="16j_9UyL-g9f7a7CFyK_-26" value="thuộc" style="shape=rhombus;perimeter=rhombusPerimeter;whiteSpace=wrap;html=1;align=center;fillColor=#d5e8d4;strokeColor=#82b366;" parent="1" vertex="1">
          <mxGeometry x="190" y="290" width="120" height="60" as="geometry" />
        </mxCell>
        <mxCell id="16j_9UyL-g9f7a7CFyK_-30" style="edgeStyle=orthogonalEdgeStyle;rounded=0;orthogonalLoop=1;jettySize=auto;html=1;exitX=0.5;exitY=1;exitDx=0;exitDy=0;entryX=0.5;entryY=0;entryDx=0;entryDy=0;endArrow=ERoneToMany;endFill=0;" parent="1" source="16j_9UyL-g9f7a7CFyK_-29" target="16j_9UyL-g9f7a7CFyK_-5" edge="1">
          <mxGeometry relative="1" as="geometry" />
        </mxCell>
        <mxCell id="SWeUmyPQ4jeQDqH1-Q_F-1" style="edgeStyle=orthogonalEdgeStyle;rounded=0;orthogonalLoop=1;jettySize=auto;html=1;exitX=0.5;exitY=0;exitDx=0;exitDy=0;entryX=0.5;entryY=1;entryDx=0;entryDy=0;endArrow=ERmandOne;endFill=0;" parent="1" source="16j_9UyL-g9f7a7CFyK_-29" target="16j_9UyL-g9f7a7CFyK_-6" edge="1">
          <mxGeometry relative="1" as="geometry" />
        </mxCell>
        <mxCell id="16j_9UyL-g9f7a7CFyK_-29" value="thuộc&lt;br&gt;" style="shape=rhombus;perimeter=rhombusPerimeter;whiteSpace=wrap;html=1;align=center;fillColor=#d5e8d4;strokeColor=#82b366;" parent="1" vertex="1">
          <mxGeometry x="20" y="200" width="120" height="60" as="geometry" />
        </mxCell>
        <mxCell id="16j_9UyL-g9f7a7CFyK_-38" style="edgeStyle=orthogonalEdgeStyle;rounded=0;orthogonalLoop=1;jettySize=auto;html=1;exitX=0;exitY=0.5;exitDx=0;exitDy=0;endArrow=ERoneToMany;endFill=0;" parent="1" source="16j_9UyL-g9f7a7CFyK_-37" target="16j_9UyL-g9f7a7CFyK_-6" edge="1">
          <mxGeometry relative="1" as="geometry" />
        </mxCell>
        <mxCell id="16j_9UyL-g9f7a7CFyK_-39" style="edgeStyle=orthogonalEdgeStyle;rounded=0;orthogonalLoop=1;jettySize=auto;html=1;exitX=1;exitY=0.5;exitDx=0;exitDy=0;entryX=0;entryY=0.5;entryDx=0;entryDy=0;endArrow=ERmandOne;endFill=0;" parent="1" source="16j_9UyL-g9f7a7CFyK_-37" target="16j_9UyL-g9f7a7CFyK_-7" edge="1">
          <mxGeometry relative="1" as="geometry" />
        </mxCell>
        <mxCell id="16j_9UyL-g9f7a7CFyK_-37" value="thuộc" style="shape=rhombus;perimeter=rhombusPerimeter;whiteSpace=wrap;html=1;align=center;fillColor=#d5e8d4;strokeColor=#82b366;" parent="1" vertex="1">
          <mxGeometry x="190" y="90" width="120" height="60" as="geometry" />
        </mxCell>
        <mxCell id="16j_9UyL-g9f7a7CFyK_-44" style="edgeStyle=orthogonalEdgeStyle;rounded=0;orthogonalLoop=1;jettySize=auto;html=1;exitX=0;exitY=0.5;exitDx=0;exitDy=0;endArrow=ERoneToMany;endFill=0;" parent="1" source="16j_9UyL-g9f7a7CFyK_-43" target="16j_9UyL-g9f7a7CFyK_-8" edge="1">
          <mxGeometry relative="1" as="geometry" />
        </mxCell>
        <mxCell id="16j_9UyL-g9f7a7CFyK_-45" style="edgeStyle=orthogonalEdgeStyle;rounded=0;orthogonalLoop=1;jettySize=auto;html=1;exitX=0.5;exitY=0;exitDx=0;exitDy=0;entryX=0.5;entryY=1;entryDx=0;entryDy=0;endArrow=ERoneToMany;endFill=0;" parent="1" source="16j_9UyL-g9f7a7CFyK_-43" target="16j_9UyL-g9f7a7CFyK_-1" edge="1">
          <mxGeometry relative="1" as="geometry" />
        </mxCell>
        <mxCell id="16j_9UyL-g9f7a7CFyK_-43" value="ct_thue_phong" style="shape=associativeEntity;whiteSpace=wrap;html=1;align=center;fillColor=#dae8fc;strokeColor=#6c8ebf;" parent="1" vertex="1">
          <mxGeometry x="360" y="510" width="140" height="60" as="geometry" />
        </mxCell>
        <mxCell id="OK-HGybYywkDAGOTww50-4" style="edgeStyle=orthogonalEdgeStyle;rounded=0;orthogonalLoop=1;jettySize=auto;html=1;entryX=0.25;entryY=1;entryDx=0;entryDy=0;endArrow=ERoneToMany;endFill=0;exitX=1;exitY=0.5;exitDx=0;exitDy=0;" parent="1" source="7PVYmb1S7kdnI_s0Hr97-1" target="16j_9UyL-g9f7a7CFyK_-1" edge="1">
          <mxGeometry relative="1" as="geometry">
            <mxPoint x="310" y="430" as="sourcePoint" />
          </mxGeometry>
        </mxCell>
        <mxCell id="OK-HGybYywkDAGOTww50-6" style="edgeStyle=orthogonalEdgeStyle;rounded=0;orthogonalLoop=1;jettySize=auto;html=1;exitX=0.5;exitY=1;exitDx=0;exitDy=0;entryX=0.5;entryY=0;entryDx=0;entryDy=0;endArrow=ERoneToMany;endFill=0;" parent="1" source="7PVYmb1S7kdnI_s0Hr97-1" target="16j_9UyL-g9f7a7CFyK_-8" edge="1">
          <mxGeometry relative="1" as="geometry">
            <mxPoint x="95" y="550" as="sourcePoint" />
          </mxGeometry>
        </mxCell>
        <mxCell id="xMZ0k_BKHOlbC9z2a1ss-3" style="edgeStyle=orthogonalEdgeStyle;rounded=0;orthogonalLoop=1;jettySize=auto;html=1;exitX=0.5;exitY=1;exitDx=0;exitDy=0;entryX=0.5;entryY=0;entryDx=0;entryDy=0;strokeColor=none;endArrow=none;endFill=0;" parent="1" source="xMZ0k_BKHOlbC9z2a1ss-1" target="16j_9UyL-g9f7a7CFyK_-21" edge="1">
          <mxGeometry relative="1" as="geometry" />
        </mxCell>
        <mxCell id="xMZ0k_BKHOlbC9z2a1ss-1" value="so_luong&lt;br&gt;" style="ellipse;whiteSpace=wrap;html=1;fillColor=#fff2cc;strokeColor=#d6b656;" parent="1" vertex="1">
          <mxGeometry x="645" y="90" width="90" height="40" as="geometry" />
        </mxCell>
        <mxCell id="xMZ0k_BKHOlbC9z2a1ss-2" value="" style="endArrow=none;html=1;rounded=0;entryX=0.5;entryY=1;entryDx=0;entryDy=0;exitX=0.5;exitY=0;exitDx=0;exitDy=0;" parent="1" source="16j_9UyL-g9f7a7CFyK_-21" target="xMZ0k_BKHOlbC9z2a1ss-1" edge="1">
          <mxGeometry width="50" height="50" relative="1" as="geometry">
            <mxPoint x="640" y="260" as="sourcePoint" />
            <mxPoint x="690" y="210" as="targetPoint" />
          </mxGeometry>
        </mxCell>
        <mxCell id="xMZ0k_BKHOlbC9z2a1ss-4" style="edgeStyle=orthogonalEdgeStyle;rounded=0;orthogonalLoop=1;jettySize=auto;html=1;exitX=0.5;exitY=1;exitDx=0;exitDy=0;entryX=0.5;entryY=0;entryDx=0;entryDy=0;strokeColor=none;endArrow=none;endFill=0;" parent="1" source="xMZ0k_BKHOlbC9z2a1ss-5" edge="1">
          <mxGeometry relative="1" as="geometry">
            <mxPoint x="690" y="280" as="targetPoint" />
          </mxGeometry>
        </mxCell>
        <mxCell id="xMZ0k_BKHOlbC9z2a1ss-5" value="gia" style="ellipse;whiteSpace=wrap;html=1;fillColor=#fff2cc;strokeColor=#d6b656;" parent="1" vertex="1">
          <mxGeometry x="645" y="230" width="90" height="40" as="geometry" />
        </mxCell>
        <mxCell id="xMZ0k_BKHOlbC9z2a1ss-6" value="" style="endArrow=none;html=1;rounded=0;entryX=0.5;entryY=1;entryDx=0;entryDy=0;exitX=0.5;exitY=0;exitDx=0;exitDy=0;" parent="1" source="16j_9UyL-g9f7a7CFyK_-16" target="xMZ0k_BKHOlbC9z2a1ss-5" edge="1">
          <mxGeometry width="50" height="50" relative="1" as="geometry">
            <mxPoint x="690" y="280" as="sourcePoint" />
            <mxPoint x="690" y="340" as="targetPoint" />
          </mxGeometry>
        </mxCell>
        <mxCell id="xMZ0k_BKHOlbC9z2a1ss-8" value="ngay_gio_yeu_cau&lt;br&gt;" style="ellipse;whiteSpace=wrap;html=1;fillColor=#fff2cc;strokeColor=#d6b656;" parent="1" vertex="1">
          <mxGeometry x="310" y="600" width="110" height="50" as="geometry" />
        </mxCell>
        <mxCell id="xMZ0k_BKHOlbC9z2a1ss-10" value="trang_thai" style="ellipse;whiteSpace=wrap;html=1;fillColor=#fff2cc;strokeColor=#d6b656;" parent="1" vertex="1">
          <mxGeometry x="440" y="600" width="110" height="50" as="geometry" />
        </mxCell>
        <mxCell id="xMZ0k_BKHOlbC9z2a1ss-11" value="" style="endArrow=none;html=1;rounded=0;entryX=0.5;entryY=1;entryDx=0;entryDy=0;exitX=0.5;exitY=0;exitDx=0;exitDy=0;" parent="1" source="xMZ0k_BKHOlbC9z2a1ss-8" target="16j_9UyL-g9f7a7CFyK_-43" edge="1">
          <mxGeometry width="50" height="50" relative="1" as="geometry">
            <mxPoint x="450" y="430" as="sourcePoint" />
            <mxPoint x="500" y="380" as="targetPoint" />
          </mxGeometry>
        </mxCell>
        <mxCell id="xMZ0k_BKHOlbC9z2a1ss-13" value="" style="endArrow=none;html=1;rounded=0;entryX=0.5;entryY=0;entryDx=0;entryDy=0;exitX=0.5;exitY=1;exitDx=0;exitDy=0;" parent="1" source="16j_9UyL-g9f7a7CFyK_-43" target="xMZ0k_BKHOlbC9z2a1ss-10" edge="1">
          <mxGeometry width="50" height="50" relative="1" as="geometry">
            <mxPoint x="450" y="430" as="sourcePoint" />
            <mxPoint x="500" y="380" as="targetPoint" />
          </mxGeometry>
        </mxCell>
        <mxCell id="7PVYmb1S7kdnI_s0Hr97-1" value="ct_xem_phong" style="shape=associativeEntity;whiteSpace=wrap;html=1;align=center;fillColor=#dae8fc;strokeColor=#6c8ebf;" parent="1" vertex="1">
          <mxGeometry x="10" y="400" width="140" height="60" as="geometry" />
        </mxCell>
        <mxCell id="7PVYmb1S7kdnI_s0Hr97-6" value="ngay_gio_yeu_cau&lt;br&gt;" style="ellipse;whiteSpace=wrap;html=1;fillColor=#fff2cc;strokeColor=#d6b656;" parent="1" vertex="1">
          <mxGeometry x="-140" y="340" width="110" height="50" as="geometry" />
        </mxCell>
        <mxCell id="7PVYmb1S7kdnI_s0Hr97-7" value="trang_thai" style="ellipse;whiteSpace=wrap;html=1;fillColor=#fff2cc;strokeColor=#d6b656;" parent="1" vertex="1">
          <mxGeometry x="-140" y="470" width="110" height="50" as="geometry" />
        </mxCell>
        <mxCell id="7PVYmb1S7kdnI_s0Hr97-8" value="" style="endArrow=none;html=1;rounded=0;entryX=0;entryY=0.5;entryDx=0;entryDy=0;exitX=1;exitY=0.5;exitDx=0;exitDy=0;" parent="1" source="7PVYmb1S7kdnI_s0Hr97-6" target="7PVYmb1S7kdnI_s0Hr97-1" edge="1">
          <mxGeometry width="50" height="50" relative="1" as="geometry">
            <mxPoint x="95" y="580" as="sourcePoint" />
            <mxPoint x="-10" y="430" as="targetPoint" />
          </mxGeometry>
        </mxCell>
        <mxCell id="7PVYmb1S7kdnI_s0Hr97-9" value="" style="endArrow=none;html=1;rounded=0;entryX=1;entryY=0.5;entryDx=0;entryDy=0;exitX=0;exitY=0.5;exitDx=0;exitDy=0;" parent="1" source="7PVYmb1S7kdnI_s0Hr97-1" target="7PVYmb1S7kdnI_s0Hr97-7" edge="1">
          <mxGeometry width="50" height="50" relative="1" as="geometry">
            <mxPoint x="-10" y="430" as="sourcePoint" />
            <mxPoint x="145" y="530" as="targetPoint" />
          </mxGeometry>
        </mxCell>
        <mxCell id="7PVYmb1S7kdnI_s0Hr97-10" value="ngay_gio_hen" style="ellipse;whiteSpace=wrap;html=1;fillColor=#fff2cc;strokeColor=#d6b656;" parent="1" vertex="1">
          <mxGeometry x="-140" y="405" width="110" height="50" as="geometry" />
        </mxCell>
        <mxCell id="7PVYmb1S7kdnI_s0Hr97-11" value="" style="endArrow=none;html=1;rounded=0;entryX=1;entryY=0.5;entryDx=0;entryDy=0;exitX=0;exitY=0.5;exitDx=0;exitDy=0;" parent="1" source="7PVYmb1S7kdnI_s0Hr97-1" target="7PVYmb1S7kdnI_s0Hr97-10" edge="1">
          <mxGeometry width="50" height="50" relative="1" as="geometry">
            <mxPoint x="-10" y="430" as="sourcePoint" />
            <mxPoint x="150" y="760" as="targetPoint" />
          </mxGeometry>
        </mxCell>
        <mxCell id="Vf8y5KTE2COu4aGGxKiX-3" style="edgeStyle=orthogonalEdgeStyle;rounded=0;orthogonalLoop=1;jettySize=auto;html=1;exitX=0.5;exitY=1;exitDx=0;exitDy=0;entryX=0.5;entryY=0;entryDx=0;entryDy=0;endArrow=none;endFill=0;startArrow=ERoneToMany;startFill=0;" edge="1" parent="1" source="Vf8y5KTE2COu4aGGxKiX-1" target="Vf8y5KTE2COu4aGGxKiX-4">
          <mxGeometry relative="1" as="geometry" />
        </mxCell>
        <mxCell id="Vf8y5KTE2COu4aGGxKiX-11" style="edgeStyle=orthogonalEdgeStyle;rounded=0;orthogonalLoop=1;jettySize=auto;html=1;exitX=1;exitY=0.5;exitDx=0;exitDy=0;entryX=0;entryY=0.5;entryDx=0;entryDy=0;endArrow=none;endFill=0;startArrow=ERmandOne;startFill=0;" edge="1" parent="1" source="Vf8y5KTE2COu4aGGxKiX-1" target="Vf8y5KTE2COu4aGGxKiX-8">
          <mxGeometry relative="1" as="geometry" />
        </mxCell>
        <mxCell id="Vf8y5KTE2COu4aGGxKiX-1" value="username" style="whiteSpace=wrap;html=1;align=center;fillColor=#ffe6cc;strokeColor=#d79b00;" vertex="1" parent="1">
          <mxGeometry x="380" y="700" width="100" height="40" as="geometry" />
        </mxCell>
        <mxCell id="Vf8y5KTE2COu4aGGxKiX-2" value="role&lt;br&gt;" style="whiteSpace=wrap;html=1;align=center;fillColor=#ffe6cc;strokeColor=#d79b00;" vertex="1" parent="1">
          <mxGeometry x="380" y="870" width="100" height="40" as="geometry" />
        </mxCell>
        <mxCell id="Vf8y5KTE2COu4aGGxKiX-6" style="edgeStyle=orthogonalEdgeStyle;rounded=0;orthogonalLoop=1;jettySize=auto;html=1;exitX=0.5;exitY=1;exitDx=0;exitDy=0;entryX=0.5;entryY=0;entryDx=0;entryDy=0;endArrow=ERmandOne;endFill=0;" edge="1" parent="1" source="Vf8y5KTE2COu4aGGxKiX-4" target="Vf8y5KTE2COu4aGGxKiX-2">
          <mxGeometry relative="1" as="geometry" />
        </mxCell>
        <mxCell id="Vf8y5KTE2COu4aGGxKiX-4" value="thuộc&lt;br&gt;" style="shape=rhombus;perimeter=rhombusPerimeter;whiteSpace=wrap;html=1;align=center;fillColor=#d5e8d4;strokeColor=#82b366;" vertex="1" parent="1">
          <mxGeometry x="370" y="770" width="120" height="60" as="geometry" />
        </mxCell>
        <mxCell id="Vf8y5KTE2COu4aGGxKiX-10" style="edgeStyle=orthogonalEdgeStyle;rounded=0;orthogonalLoop=1;jettySize=auto;html=1;exitX=1;exitY=0.5;exitDx=0;exitDy=0;entryX=0;entryY=0.5;entryDx=0;entryDy=0;startArrow=ERmandOne;startFill=0;endArrow=ERmandOne;endFill=0;" edge="1" parent="1" source="Vf8y5KTE2COu4aGGxKiX-7" target="Vf8y5KTE2COu4aGGxKiX-1">
          <mxGeometry relative="1" as="geometry" />
        </mxCell>
        <mxCell id="Vf8y5KTE2COu4aGGxKiX-7" value="thuộc&lt;br&gt;" style="shape=rhombus;perimeter=rhombusPerimeter;whiteSpace=wrap;html=1;align=center;fillColor=#d5e8d4;strokeColor=#82b366;" vertex="1" parent="1">
          <mxGeometry x="20" y="690" width="120" height="60" as="geometry" />
        </mxCell>
        <mxCell id="Vf8y5KTE2COu4aGGxKiX-12" style="edgeStyle=orthogonalEdgeStyle;rounded=0;orthogonalLoop=1;jettySize=auto;html=1;exitX=0.5;exitY=0;exitDx=0;exitDy=0;entryX=0.5;entryY=1;entryDx=0;entryDy=0;endArrow=ERmandOne;endFill=0;" edge="1" parent="1" source="Vf8y5KTE2COu4aGGxKiX-8" target="16j_9UyL-g9f7a7CFyK_-2">
          <mxGeometry relative="1" as="geometry" />
        </mxCell>
        <mxCell id="Vf8y5KTE2COu4aGGxKiX-8" value="thuộc&lt;br&gt;" style="shape=rhombus;perimeter=rhombusPerimeter;whiteSpace=wrap;html=1;align=center;fillColor=#d5e8d4;strokeColor=#82b366;" vertex="1" parent="1">
          <mxGeometry x="870" y="690" width="120" height="60" as="geometry" />
        </mxCell>
      </root>
    </mxGraphModel>
  </diagram>
</mxfile>
